<svg width="72" height="72" viewBox="0 0 72 72" fill="none" xmlns="http://www.w3.org/2000/svg">
<circle cx="36" cy="36" r="36" fill="#FFCF33"/>
<path fill-rule="evenodd" clip-rule="evenodd" d="M58.979 23.501C59.6118 24.1339 59.9672 24.9922 59.9672 25.8871C59.9672 26.7821 59.6118 27.6403 58.979 28.2732L33.6823 53.57C33.348 53.9044 32.9511 54.1696 32.5143 54.3506C32.0774 54.5316 31.6093 54.6247 31.1364 54.6247C30.6636 54.6247 30.1954 54.5316 29.7586 54.3506C29.3217 54.1696 28.9248 53.9044 28.5905 53.57L16.022 41.0037C15.6997 40.6924 15.4426 40.32 15.2657 39.9082C15.0888 39.4965 14.9957 39.0536 14.9918 38.6055C14.9879 38.1573 15.0733 37.7129 15.243 37.2982C15.4127 36.8834 15.6633 36.5066 15.9802 36.1897C16.2971 35.8728 16.6739 35.6222 17.0887 35.4525C17.5035 35.2828 17.9479 35.1974 18.396 35.2013C18.8442 35.2052 19.287 35.2983 19.6988 35.4752C20.1106 35.652 20.483 35.9091 20.7943 36.2315L31.1353 46.5725L54.2045 23.501C54.518 23.1874 54.8901 22.9386 55.2997 22.7688C55.7094 22.5991 56.1484 22.5117 56.5918 22.5117C57.0352 22.5117 57.4742 22.5991 57.8839 22.7688C58.2935 22.9386 58.6656 23.1874 58.979 23.501Z" fill="#504B3D"/>
</svg>
